<svg xmlns="http://www.w3.org/2000/svg" width="102" height="108" fill="none">
    <g opacity=".5">
        <path stroke="#3A4374" stroke-linecap="round" stroke-linejoin="round" stroke-width="1.045"
            d="M48.73 15.593C25.822 15.59 7.246 34.224 7.235 57.221c-.01 22.996 18.55 41.648 41.458 41.664 22.909.017 41.495-18.61 41.517-41.606a41.72 41.72 0 0 0-12.132-29.473A41.399 41.399 0 0 0 48.73 15.593Z" />
        <ellipse cx="70.476" cy="43.691" fill="#231F20" rx="1.917" ry="2.862" />
        <path fill="#3A4374"
            d="m0 44.902 97.429-21.645-19.166-5.612S67.88.37 65.11.01C62.338-.351 11.979 10.43 11.979 10.43L8.785 34.77 0 44.902ZM20.284 103.503 9.271 86.027l48.14-8.265 3.306 16.746 4.888-15.423 24.628 4.882-5.007 19.536H20.284Z" />
        <path fill="#fff"
            d="m81.97 65.607 4.438-.617L88.7 81.618a2.115 2.115 0 0 1-1.799 2.387l-.261.036a2.11 2.11 0 0 1-2.377-1.806L81.97 65.607Z" />
        <path fill="#3A4374" fill-rule="evenodd"
            d="M83.869 82.299a2.519 2.519 0 0 0 2.483 2.172c.11 0 .22-.009.328-.024l.255-.04a2.49 2.49 0 0 0 1.661-.97 2.508 2.508 0 0 0 .48-1.868l-2.277-16.626a.377.377 0 0 0-.151-.265.398.398 0 0 0-.296-.08l-4.432.617a.4.4 0 0 0-.343.45l2.292 16.634Zm.79-.113-2.236-16.233 3.642-.465L88.3 81.722c.128.935-.522 1.799-1.454 1.931h-.263a1.718 1.718 0 0 1-1.925-1.467Z"
            clip-rule="evenodd" />
        <path fill="#fff" d="m78.562 50.93 7.159-.995 2.242 16.263-7.159.995-2.242-16.263Z" />
        <path fill="#3A4374" fill-rule="evenodd"
            d="M80.562 67.525c.07.05.154.078.24.08l.048-.008 7.187-.994a.4.4 0 0 0 .344-.45l-2.244-16.265a.393.393 0 0 0-.448-.344l-7.187.994a.423.423 0 0 0-.263.152.394.394 0 0 0-.072.296L80.41 67.26c.009.106.064.203.151.265Zm.583-.778-2.132-15.472 6.389-.882 2.132 15.472-6.389.882Z"
            clip-rule="evenodd" />
        <path fill="#fff"
            d="M82.802 81.675a3.248 3.248 0 0 1 2.77-3.66l.725-.102a3.248 3.248 0 0 1 3.665 2.774l3.013 21.85a3.248 3.248 0 0 1-2.77 3.661l-.726.101a3.249 3.249 0 0 1-3.664-2.774l-3.013-21.85Z" />
        <path fill="#3A4374" fill-rule="evenodd"
            d="M85.506 104.272a2.959 2.959 0 0 0 2.923 2.558l.399.008 2.108-.297a2.964 2.964 0 0 0 2.516-3.335l-3.195-23.248a2.949 2.949 0 0 0-3.322-2.525l-2.108.288a2.958 2.958 0 0 0-2.516 3.343l3.195 23.208Zm1.541-26.07c.099-.007.197-.007.296 0l-.024.009a2.16 2.16 0 0 1 2.124 1.867l3.194 23.248a2.163 2.163 0 0 1-1.836 2.405l-2.109.297a2.166 2.166 0 0 1-2.395-1.844l-3.195-23.248a2.114 2.114 0 0 1 .415-1.603 2.13 2.13 0 0 1 1.422-.842l2.108-.288Z"
            clip-rule="evenodd" />
        <ellipse cx="81.569" cy="46.289" fill="#fff" rx="19.19" ry="19.264" />
        <path fill="#3A4374" fill-rule="evenodd"
            d="M61.984 47.175c.477 10.503 9.095 18.774 19.569 18.778.913 0 1.826-.062 2.731-.184 10.699-1.52 18.161-11.436 16.691-22.182C99.541 33.172 90.203 25.73 79.773 26.69c-10.43.96-18.265 9.982-17.788 20.485Zm16.973-19.58c.86-.12 1.728-.178 2.596-.177h.032c9.36.04 17.27 6.976 18.567 16.281 1.043 7.561-2.554 15.008-9.114 18.868a18.74 18.74 0 0 1-20.853-1.233c-6.063-4.607-8.764-12.427-6.844-19.812 1.92-7.386 8.084-12.883 15.616-13.928Z"
            clip-rule="evenodd" />
        <ellipse cx="81.569" cy="46.288" fill="#fff" rx="15.589" ry="15.648" />
        <path fill="#3A4374" fill-rule="evenodd"
            d="M65.598 46.858c.297 8.634 7.356 15.48 15.963 15.48.734 0 1.468-.05 2.196-.153 8.525-1.188 14.579-8.943 13.69-17.536-.889-8.594-8.401-14.935-16.987-14.34-8.587.596-15.159 7.914-14.862 16.549Zm13.846-15.64a15.752 15.752 0 0 1 2.117-.145c8.173.018 14.864 6.531 15.132 14.731.269 8.2-5.982 15.141-14.136 15.697-8.155.556-15.283-5.472-16.122-13.633-.839-8.162 4.913-15.524 13.01-16.65Z"
            clip-rule="evenodd" />
        <path fill="#fff"
            d="M99.896 89.714a11.644 11.644 0 0 0-3.913-3.207c-4.576-2.404-9.822-2.324-14.638-.801-1.709.545-5.023 1.323-5.199 3.6a2.115 2.115 0 0 0 1.525 2.003 6.253 6.253 0 0 0 2.676.105 6.887 6.887 0 0 0-3.618.913c-1.03.73-1.597 2.325-.75 3.295.374.404.861.683 1.397.802a6.366 6.366 0 0 0 3.554-.048c-1.251.24-2.47.625-3.634 1.146-.703.313-1.485.866-1.405 1.604.08.737.798 1.074 1.453 1.298 1.378.475 2.817.745 4.273.802a8.4 8.4 0 0 0-3.474 1.499c-1.597 1.347-1.597 3.904.567 4.634a6.397 6.397 0 0 0 2.14.248c6.389 0 14.04-.802 18.368-6.141a9.99 9.99 0 0 0 2.044-9.066 8.706 8.706 0 0 0-1.366-2.686Z" />
        <path fill="#3A4374" fill-rule="evenodd"
            d="M78.582 107.72c.72.211 1.47.301 2.22.264l.024.016c6.325-.008 14.167-.729 18.695-6.285a10.363 10.363 0 0 0 2.116-9.443 9.187 9.187 0 0 0-1.445-2.79 11.989 11.989 0 0 0-4.049-3.35c-4.296-2.198-9.607-2.494-14.942-.803l-.51.153-.054.016c-1.901.585-4.732 1.457-4.914 3.776a2.461 2.461 0 0 0 1.525 2.3c-.282.113-.55.258-.798.433a3.208 3.208 0 0 0-1.294 2.14 2.219 2.219 0 0 0 .471 1.732c.425.465.983.784 1.597.914.142.042.286.077.432.104l-.567.24c-1.102.522-1.717 1.356-1.598 2.045.12.69.655 1.235 1.717 1.603.78.273 1.582.479 2.396.618a5.94 5.94 0 0 0-1.725 1.002 3.502 3.502 0 0 0-1.198 3.206 2.763 2.763 0 0 0 1.9 2.109Zm-1.126-9.885c.835-.376 1.7-.68 2.587-.906.335-.039.667-.106.99-.2a.41.41 0 0 0 .272-.481.4.4 0 0 0-.463-.297c-.32.065-.647.137-.966.217a6.113 6.113 0 0 1-2.396-.16 2.321 2.321 0 0 1-1.198-.658 1.439 1.439 0 0 1-.287-1.114 2.406 2.406 0 0 1 .966-1.604 4.9 4.9 0 0 1 2.308-.753c.185-.004.368-.025.548-.045.194-.022.384-.043.57-.043a.408.408 0 0 0 .36-.433.416.416 0 0 0-.424-.369l-.07.005c-.33.022-.674.046-1.024.083a3.86 3.86 0 0 1-1.43-.176 1.738 1.738 0 0 1-1.262-1.603c.144-1.794 2.71-2.572 4.404-3.085l.005-.002.519-.16c5.135-1.603 10.222-1.323 14.335.802a11.095 11.095 0 0 1 3.777 3.126 8.42 8.42 0 0 1 1.326 2.541 9.566 9.566 0 0 1-1.98 8.698c-4.313 5.299-11.924 5.989-18.081 5.989a5.732 5.732 0 0 1-2.004-.225 1.953 1.953 0 0 1-1.374-1.499 2.659 2.659 0 0 1 .934-2.453 8.29 8.29 0 0 1 3.322-1.419.4.4 0 0 0-.087-.786c-1.419-.06-2.82-.33-4.161-.801-.511-.169-1.118-.377-1.182-.97-.064-.594.79-1.05 1.166-1.219Z"
            clip-rule="evenodd" />
        <path fill="#fff" d="M55.367 46.593s9.727 14.67 3.841 14.879c-5.886.208-6.389-1.339-6.389-1.339" />
        <path fill="#3A4374"
            d="M58.154 61.937c-4.936 0-5.646-1.355-5.742-1.604a.425.425 0 0 1 .263-.529.415.415 0 0 1 .52.265s.718 1.242 5.997 1.05a1.348 1.348 0 0 0 1.294-.673c1.262-2.461-3.514-10.622-5.463-13.556a.418.418 0 0 1 .128-.554.414.414 0 0 1 .56.089c.742 1.122 7.187 11.063 5.51 14.43a2.139 2.139 0 0 1-1.997 1.13l-1.07-.048Z" />
        <ellipse cx="82.455" cy="45.8" fill="#C0C5DC" rx="3.53" ry="6.036" />
        <ellipse cx="39.259" cy="45.8" fill="#3A4374" rx="2.691" ry="4.882" />
    </g>
</svg>